<svg width="149" height="40" viewBox="0 0 149 40" fill="none" xmlns="http://www.w3.org/2000/svg">
<g clip-path="url(#clip0_146_2)">
<path fill-rule="evenodd" clip-rule="evenodd" d="M18.2748 4.00061C10.1928 7.12057 4.77902 14.7929 4.54694 23.4527C3.561 19.0271 4.49008 14.3902 7.10362 10.6862C9.71792 6.98224 13.7754 4.5539 18.2748 4.00061ZM26.913 7.07062C26.92 6.2376 26.7632 5.4092 26.4504 4.63382C26.445 4.63536 26.4412 4.63536 26.4381 4.63766C26.329 4.36409 26.2076 4.10512 26.0716 3.85844C25.5298 2.87404 24.7759 2.09098 23.8699 1.48928C22.3015 0.448777 20.2881 -0.0123002 18.1564 -4.85168e-06C14.7206 0.0215121 11.6475 1.0451 9.02938 2.78183C6.22296 4.64381 3.94985 7.3196 2.32224 10.4472C0.299651 14.3372 -0.361227 18.5253 0.182076 22.413C0.560928 25.1302 1.53073 27.7054 3.03922 29.9316C4.55232 32.1671 6.60027 34.0467 9.12467 35.36C12.4306 37.0791 16.5488 37.8345 21.3501 37.1659C22.6957 36.9784 23.966 36.7048 25.1609 36.3583C26.1845 36.0616 27.1459 35.7135 28.0427 35.3201L34.2764 38.8219L36.3705 39.9992L36.1131 37.6101L35.2893 29.9523C38.4991 26.1093 39.8301 21.3456 39.6526 16.9984C39.5458 14.3918 38.9003 11.9242 37.7929 9.88012C36.6471 7.76608 35.0072 6.09006 32.9508 5.14485C31.5138 4.48397 29.8901 4.18581 28.1118 4.35026C28.4246 5.13102 28.5768 5.96403 28.5622 6.80165C29.8078 6.72097 30.9321 6.94075 31.9211 7.39644C33.4634 8.1042 34.7137 9.40136 35.609 11.0536C36.5434 12.7741 37.0882 14.8697 37.1797 17.0944C37.3388 21.0236 36.09 25.3347 33.0738 28.7351L32.7111 29.1462L32.7679 29.6857L33.3919 35.4799L28.7082 32.8479L28.1526 32.5367L27.5739 32.8103C26.6118 33.266 25.5774 33.6586 24.4701 33.9806C23.4012 34.2919 22.2477 34.5362 21.0089 34.7099C16.7563 35.3032 13.1414 34.6507 10.2689 33.1553C8.1103 32.0333 6.36666 30.438 5.08333 28.5438C3.79462 26.6372 2.96314 24.4217 2.63347 22.0725C2.1601 18.6798 2.7449 15.0111 4.52235 11.5915C5.96168 8.82194 7.95661 6.46737 10.3949 4.84822C12.6304 3.36509 15.2455 2.48981 18.1656 2.47368C19.827 2.46292 21.3609 2.7972 22.5021 3.5549C23.0776 3.9376 23.5602 4.4394 23.9068 5.07185C24.6745 6.13002 24.5961 7.86828 23.6763 10.2836L23.1399 11.8259L22.6788 13.1445L22.1194 14.7829L23.8522 14.7791L25.0103 14.7775C25.7965 14.776 26.5611 14.7737 27.3334 14.7814L19.5197 21.9457L20.8652 17.1213L19.4736 17.1682L16.495 17.2696C18.5545 14.9504 23.687 10.4672 22.6911 7.06216C21.7835 7.91055 20.8045 8.89725 19.7287 10.0315L12.7288 17.7861L10.8291 19.9408L13.6986 19.8425L17.338 19.718L13.956 31.0136L32.9985 12.5244L30.2651 12.3853C28.6605 12.3069 27.1612 12.2992 25.5997 12.3031C26.1031 10.8776 26.5642 9.52278 26.7824 8.29017C26.8554 7.86905 26.9023 7.461 26.9107 7.06985L26.913 7.07062Z" fill="white"/>
</g>
<path d="M62.2684 12.2314H51.4432V17.1973H60.9207V20.9473H51.4432V30H46.9607V8.4375H62.2684V12.2314ZM66.2006 8.4082H70.7123V26.1182H81.4057V30H66.2006V8.4082ZM98.082 25.5615H90.1279L88.6338 30H83.917L91.6221 8.4082H96.7197L104.366 30H99.4736L98.082 25.5615ZM96.8223 21.8408L94.127 13.3447L91.3438 21.8408H96.8223ZM115.857 26.8799C116.921 26.8799 117.786 26.7627 118.45 26.5283C119.71 26.0791 120.339 25.2441 120.339 24.0234C120.339 23.3105 120.027 22.7588 119.402 22.3682C118.777 21.9873 117.796 21.6504 116.458 21.3574L114.172 20.8447C111.926 20.3369 110.374 19.7852 109.514 19.1895C108.059 18.1934 107.332 16.6357 107.332 14.5166C107.332 12.583 108.035 10.9766 109.441 9.69727C110.847 8.41797 112.913 7.77832 115.637 7.77832C117.913 7.77832 119.851 8.38379 121.453 9.59473C123.064 10.7959 123.909 12.5439 123.987 14.8389H119.651C119.573 13.54 119.006 12.6172 117.952 12.0703C117.249 11.709 116.375 11.5283 115.33 11.5283C114.168 11.5283 113.24 11.7627 112.546 12.2314C111.853 12.7002 111.506 13.3545 111.506 14.1943C111.506 14.9658 111.848 15.542 112.532 15.9229C112.971 16.1768 113.909 16.4746 115.344 16.8164L119.065 17.71C120.696 18.1006 121.926 18.623 122.756 19.2773C124.046 20.293 124.69 21.7627 124.69 23.6865C124.69 25.6592 123.933 27.2998 122.42 28.6084C120.916 29.9072 118.787 30.5566 116.033 30.5566C113.22 30.5566 111.008 29.917 109.397 28.6377C107.786 27.3486 106.98 25.5811 106.98 23.335H111.287C111.423 24.3213 111.692 25.0586 112.092 25.5469C112.825 26.4355 114.08 26.8799 115.857 26.8799ZM141.806 30V20.3613H133.368V30H128.901V8.4082H133.368V16.6406H141.806V8.4082H146.288V30H141.806Z" fill="white"/>
<defs>
<clipPath id="clip0_146_2">
<rect width="39.668" height="40" fill="white"/>
</clipPath>
</defs>
</svg>
