<svg width="517" height="521" viewBox="0 0 517 521" fill="none" xmlns="http://www.w3.org/2000/svg">
<mask id="mask0_146_6" style="mask-type:luminance" maskUnits="userSpaceOnUse" x="0" y="0" width="517" height="521">
<path d="M237.809 52.0631C132.649 92.6631 62.1894 192.503 59.1694 305.173C46.3394 247.583 58.4294 187.263 92.4394 139.063C126.459 90.8431 179.259 59.2631 237.809 52.0631ZM350.219 92.0031C350.309 81.1431 348.269 70.3831 344.199 60.2931C344.129 60.2931 344.079 60.3131 344.039 60.3131C342.619 56.7831 341.039 53.4131 339.269 50.2031C332.219 37.3931 322.409 27.1831 310.619 19.3731C290.209 5.84311 264.009 -0.156886 236.269 0.00311389C191.559 0.283114 151.569 13.6031 117.499 36.2031C80.9794 60.4331 51.3994 95.2431 30.2194 135.953C3.89935 186.573 -4.70064 241.073 2.36936 291.663C7.29936 327.023 19.9194 360.533 39.5494 389.503C59.2394 418.593 85.8894 443.023 118.739 460.113C161.759 482.503 215.349 492.343 277.829 483.623C295.339 481.183 311.869 477.623 327.419 473.133C340.739 469.253 353.249 464.743 364.919 459.623L446.039 505.193L473.289 520.513L469.939 489.403L459.219 389.773C500.989 339.763 518.309 277.773 515.999 221.203C514.609 187.273 506.209 155.143 491.799 128.543C476.889 101.063 455.549 79.2531 428.789 66.9331C410.089 58.3531 388.959 54.4731 365.819 56.6131C369.889 66.7731 371.869 77.6131 371.679 88.5131C387.889 87.4731 402.519 90.3031 415.389 96.2331C435.459 105.443 451.729 122.323 463.379 143.823C475.539 166.233 482.629 193.513 483.819 222.453C485.889 273.563 469.639 329.683 430.389 373.933L425.669 379.253L426.409 386.273L434.529 461.703L373.579 427.453L366.349 423.383L358.819 426.943C346.299 432.873 332.839 438.013 318.429 442.173C304.519 446.213 289.509 449.423 273.389 451.683C218.049 459.403 171.009 450.893 133.629 431.453C105.539 416.853 82.8493 396.083 66.1494 371.413C49.3794 346.623 38.5594 317.793 34.2694 287.203C28.1094 243.073 35.7194 195.343 58.8494 150.833C77.5794 114.793 103.539 84.1231 135.269 63.0631C164.359 43.7631 198.389 32.3931 236.389 32.1631C258.009 32.0231 277.969 36.3931 292.819 46.2331C300.309 51.2131 306.589 57.7431 311.099 65.9731C321.089 79.7631 320.069 102.363 308.099 133.793L301.119 153.883L295.119 171.043L287.839 192.343L310.389 192.323L325.459 192.273C335.689 192.253 345.639 192.223 355.689 192.323L254.009 285.583L271.519 222.803L253.409 223.413L214.649 224.733C241.449 194.533 308.239 136.193 295.279 91.8731C283.469 102.923 270.729 115.773 256.729 130.543L165.639 231.453L140.919 259.473L178.259 258.193L225.619 256.583L181.609 403.573L429.409 162.953L393.839 161.163C372.959 160.113 353.449 160.043 333.129 160.073C339.679 141.523 345.679 123.923 348.519 107.853C349.469 102.393 350.079 97.0831 350.189 91.9931L350.219 92.0031Z" fill="white"/>
</mask>
<g mask="url(#mask0_146_6)">
<path d="M518.309 -0.15686H-4.70068V520.523H518.309V-0.15686Z" fill="url(#paint0_linear_146_6)"/>
</g>
<defs>
<linearGradient id="paint0_linear_146_6" x1="161.559" y1="457.313" x2="431.079" y2="-100.517" gradientUnits="userSpaceOnUse">
<stop stop-color="#4158FF"/>
<stop offset="0.5" stop-color="#F50A70"/>
<stop offset="1" stop-color="#FED281"/>
</linearGradient>
</defs>
</svg>
